<svg xmlns="http://www.w3.org/2000/svg" viewBox="0 0 512 512">
  <defs>
    <linearGradient id="bg" x1="0%" y1="0%" x2="100%" y2="100%">
      <stop offset="0%" style="stop-color:#6366f1"/>
      <stop offset="100%" style="stop-color:#4f46e5"/>
    </linearGradient>
  </defs>
  <!-- Background -->
  <rect width="512" height="512" rx="96" fill="url(#bg)"/>
  <!-- Calendar body -->
  <rect x="96" y="144" width="320" height="272" rx="24" fill="white"/>
  <!-- Calendar header -->
  <rect x="96" y="144" width="320" height="72" rx="24" fill="#312e81"/>
  <rect x="96" y="192" width="320" height="24" fill="#312e81"/>
  <!-- Calendar rings -->
  <rect x="160" y="112" width="24" height="64" rx="12" fill="#1e1b4b"/>
  <rect x="328" y="112" width="24" height="64" rx="12" fill="#1e1b4b"/>
  <!-- AI sparkle/star -->
  <path d="M256 280 L268 316 L304 328 L268 340 L256 376 L244 340 L208 328 L244 316 Z" fill="#4f46e5"/>
  <!-- Small dots for calendar grid effect -->
  <circle cx="152" cy="280" r="12" fill="#c7d2fe"/>
  <circle cx="152" cy="328" r="12" fill="#c7d2fe"/>
  <circle cx="152" cy="376" r="12" fill="#c7d2fe"/>
  <circle cx="360" cy="280" r="12" fill="#c7d2fe"/>
  <circle cx="360" cy="328" r="12" fill="#c7d2fe"/>
  <circle cx="360" cy="376" r="12" fill="#c7d2fe"/>
</svg>
